<svg width="32" height="32" viewBox="0 0 32 32" fill="none" xmlns="http://www.w3.org/2000/svg">
<path d="M25 0H7C3.13401 0 0 3.13401 0 7V25C0 28.866 3.13401 32 7 32H25C28.866 32 32 28.866 32 25V7C32 3.13401 28.866 0 25 0Z" fill="#452B9E"/>
<path d="M15.5 2C22.9558 2 29 8.04416 29 15.5C29 15.8443 28.9863 16.1856 28.9609 16.5234H25.4619V16.5244H15.9658V29H14.1035V16.5244H9.28125L8.33105 14.6621H27.1035C26.6739 8.62593 21.6456 3.86231 15.5 3.8623C9.07255 3.8623 3.8623 9.07255 3.8623 15.5C3.86236 20.7957 7.4006 25.2589 12.2412 26.668V28.6035C6.35976 27.1456 2 21.8322 2 15.5C2 8.04416 8.04416 2 15.5 2ZM28.1904 20.1123C26.562 24.5911 22.6304 27.9624 17.8271 28.7969V26.9004C21.8396 26.0859 25.0979 23.2087 26.4531 19.4219L28.1904 20.1123Z" fill="white"/>
</svg>
