<svg width="32" height="32" viewBox="0 0 32 32" fill="none" xmlns="http://www.w3.org/2000/svg">
<path d="M25 0H7C3.13401 0 0 3.13401 0 7V25C0 28.866 3.13401 32 7 32H25C28.866 32 32 28.866 32 25V7C32 3.13401 28.866 0 25 0Z" fill="#452B9E"/>
<path d="M15.5 1C23.5081 1 30 7.49187 30 15.5C30 15.87 29.9843 16.2366 29.957 16.5996H28.4004V16.6006H16.4004V30H14.4004V16.6006H8.82031L7.7998 14.6006H27.9678C27.5068 8.11685 22.1011 3 15.5 3C8.59644 3 3 8.59644 3 15.5C3.00016 21.1883 6.80026 25.9881 12 27.502V29.5732C5.6829 28.0074 1 22.3012 1 15.5C1 7.49187 7.49187 1 15.5 1ZM29.1289 20.4531C27.4943 24.949 23.7009 28.408 19 29.5732V27.502C22.8477 26.3817 25.9262 23.4612 27.2686 19.7139L29.1289 20.4531Z" fill="white"/>
</svg>
